<?xml version="1.0" encoding="UTF-8" standalone="no"?>
<svg
   xmlns:dc="http://purl.org/dc/elements/1.1/"
   xmlns:cc="http://creativecommons.org/ns#"
   xmlns:rdf="http://www.w3.org/1999/02/22-rdf-syntax-ns#"
   xmlns:svg="http://www.w3.org/2000/svg"
   xmlns="http://www.w3.org/2000/svg"
   width="16"
   height="12.999209"
   viewBox="0 0 16 12.999209"
   version="1.1"
   id="svg3834">
  <metadata
     id="metadata3840">
    <rdf:RDF>
      <cc:Work
         rdf:about="">
        <dc:format>image/svg+xml</dc:format>
        <dc:type
           rdf:resource="http://purl.org/dc/dcmitype/StillImage" />
        <dc:title></dc:title>
      </cc:Work>
    </rdf:RDF>
  </metadata>
  <defs
     id="defs3838" />
  <path
     style="fill-rule:evenodd;stroke-width:1.0000304"
     d="m 14.7,3.3386215 c 0.13,-0.3200195 0.55,-1.5900968 -0.13,-3.31020145 0,0 -1.05,-0.33002008 -3.44,1.30007915 C 10.13,1.0484821 9.06,1.0084797 8,1.0084797 c -1.06,0 -2.13,0.040002 -3.13,0.3200195 C 2.48,-0.31160064 1.43,0.02842005 1.43,0.02842005 0.75,1.7485247 1.17,3.018602 1.3,3.3386215 0.49,4.2086744 0,5.3287426 0,6.6888253 0,11.839138 3.33,12.999209 7.98,12.999209 12.63,12.999209 16,11.839138 16,6.6888253 16,5.3287426 15.51,4.2086744 14.7,3.3386215 Z M 8,12.019149 c -3.3,0 -5.98,-0.150009 -5.98,-3.3502032 0,-0.7600462 0.38,-1.48009 1.02,-2.0701259 1.07,-0.9800597 2.9,-0.460028 4.96,-0.460028 2.07,0 3.88,-0.5200317 4.96,0.460028 0.65,0.5900359 1.02,1.3000791 1.02,2.0701259 C 13.98,11.85914 11.3,12.019149 8,12.019149 Z M 5.49,7.0088448 c -0.66,0 -1.2,0.8000487 -1.2,1.7801083 0,0.9800597 0.54,1.7901089 1.2,1.7901089 0.66,0 1.2,-0.8000486 1.2,-1.7901089 0,-0.9900602 -0.54,-1.7801083 -1.2,-1.7801083 z m 5.02,0 c -0.66,0 -1.2,0.7900481 -1.2,1.7801083 0,0.9900603 0.54,1.7901089 1.2,1.7901089 0.66,0 1.2,-0.8000486 1.2,-1.7901089 0,-0.9900602 -0.53,-1.7801083 -1.2,-1.7801083 z"
     id="path3832" />
</svg>
